# xmcd CD database file
#
# Track frame offsets:
#	187
#	59622
#	113850
#	165825
#	196500
#
# Disc length: 3141 seconds
#
# Revision: 0
# Processed by: cddbd v1.5.2PL0 Copyright (c) Steve Scherf et al.
# Submitted via: CDex 1.70beta2
#
DISCID=350c4305
DTITLE=Amina Claudine Myers - Country Girl
DYEAR=1986
DGENRE=Jazz
TTITLE0=Country Girl
TTITLE1=Blessings
TTITLE2=Pain
TTITLE3=Untitled
TTITLE4=Watch...What Happens!
EXTD=YEAR: 1986
EXTT0=
EXTT1=
EXTT2=
EXTT3=
EXTT4=
PLAYORDER=
